<svg xmlns="http://www.w3.org/2000/svg" width="1440" height="1060" viewBox="0 0 1440 1060">
<style>
  text { font-family: -apple-system, BlinkMacSystemFont, "Segoe UI", sans-serif; fill: #1f2328; }
  .title { font-size: 24px; font-weight: 600; }
  .panel { font-size: 18px; font-weight: 600; }
  .legend, .axis { font-size: 12px; }
  .scenario { font-size: 11px; }
  .grid { stroke: #d0d7de; stroke-width: 1; }
</style>
<rect width="100%" height="100%" fill="white"/>
<text x="95" y="32" class="title">V8 serialization performance (median, logarithmic scale)</text>
<rect x="95" y="55" width="14" height="14" fill="#0969da"/><text x="115" y="67" class="legend">C++ headers (SIMD)</text><rect x="300" y="55" width="14" height="14" fill="#6e7781"/><text x="320" y="67" class="legend">C++ headers (scalar)</text><rect x="505" y="55" width="14" height="14" fill="#54aeff"/><text x="525" y="67" class="legend">v8serial addon</text><rect x="710" y="55" width="14" height="14" fill="#8250df"/><text x="730" y="67" class="legend">Node v8</text><rect x="915" y="55" width="14" height="14" fill="#1a7f37"/><text x="935" y="67" class="legend">JSON text</text><rect x="1120" y="55" width="14" height="14" fill="#bf8700"/><text x="1140" y="67" class="legend">JSON byte array</text><rect x="1325" y="55" width="14" height="14" fill="#cf222e"/><text x="1345" y="67" class="legend">JSON base64</text>
<text x="95" y="81" class="panel">Encode latency</text><line x1="95" y1="315" x2="1415" y2="315" class="grid"/><text x="85" y="319" class="axis" text-anchor="end">10 ns</text><line x1="95" y1="284.38567091793607" x2="1415" y2="284.38567091793607" class="grid"/><text x="85" y="288.38567091793607" class="axis" text-anchor="end">100 ns</text><line x1="95" y1="253.77134183587214" x2="1415" y2="253.77134183587214" class="grid"/><text x="85" y="257.77134183587214" class="axis" text-anchor="end">1.00 us</text><line x1="95" y1="223.1570127538082" x2="1415" y2="223.1570127538082" class="grid"/><text x="85" y="227.1570127538082" class="axis" text-anchor="end">10.00 us</text><line x1="95" y1="192.5426836717443" x2="1415" y2="192.5426836717443" class="grid"/><text x="85" y="196.5426836717443" class="axis" text-anchor="end">100.00 us</text><line x1="95" y1="161.92835458968037" x2="1415" y2="161.92835458968037" class="grid"/><text x="85" y="165.92835458968037" class="axis" text-anchor="end">1.00 ms</text><line x1="95" y1="131.3140255076164" x2="1415" y2="131.3140255076164" class="grid"/><text x="85" y="135.3140255076164" class="axis" text-anchor="end">10.00 ms</text><rect x="127.5" y="301.45992398861637" width="18" height="13.540076011383633" fill="#0969da"><title>Scalar int32 - C++ headers (SIMD): 28 ns</title></rect><rect x="147.5" y="301.38651104699045" width="18" height="13.61348895300955" fill="#6e7781"><title>Scalar int32 - C++ headers (scalar): 28 ns</title></rect><rect x="167.5" y="272.13317942803246" width="18" height="42.86682057196754" fill="#54aeff"><title>Scalar int32 - v8serial addon: 251 ns</title></rect><rect x="187.5" y="270.57867772823215" width="18" height="44.42132227176785" fill="#8250df"><title>Scalar int32 - Node v8: 282 ns</title></rect><rect x="207.5" y="287.15218767071275" width="18" height="27.84781232928725" fill="#1a7f37"><title>Scalar int32 - JSON text: 81 ns</title></rect><text x="177.5" y="333" class="scenario" text-anchor="middle">Scalar int32</text><rect x="292.5" y="290.9006921443981" width="18" height="24.09930785560192" fill="#0969da"><title>Point3d - C++ headers (SIMD): 61 ns</title></rect><rect x="312.5" y="289.6282929234919" width="18" height="25.371707076508073" fill="#6e7781"><title>Point3d - C++ headers (scalar): 67 ns</title></rect><rect x="332.5" y="255.944249043981" width="18" height="59.05575095601901" fill="#54aeff"><title>Point3d - v8serial addon: 849 ns</title></rect><rect x="352.5" y="263.5692492520119" width="18" height="51.4307507479881" fill="#8250df"><title>Point3d - Node v8: 479 ns</title></rect><rect x="372.5" y="272.63168262917856" width="18" height="42.368317370821444" fill="#1a7f37"><title>Point3d - JSON text: 242 ns</title></rect><text x="342.5" y="333" class="scenario" text-anchor="middle">Point3d</text><rect x="457.5" y="266.91877437851946" width="18" height="48.08122562148054" fill="#0969da"><title>Nested geometry - C++ headers (SIMD): 372 ns</title></rect><rect x="477.5" y="265.85360734951155" width="18" height="49.14639265048845" fill="#6e7781"><title>Nested geometry - C++ headers (scalar): 403 ns</title></rect><rect x="497.5" y="231.00169560064688" width="18" height="83.99830439935312" fill="#54aeff"><title>Nested geometry - v8serial addon: 5.54 us</title></rect><rect x="517.5" y="253.76411948207132" width="18" height="61.23588051792868" fill="#8250df"><title>Nested geometry - Node v8: 1.00 us</title></rect><rect x="537.5" y="254.6142563065745" width="18" height="60.385743693425496" fill="#1a7f37"><title>Nested geometry - JSON text: 939 ns</title></rect><text x="507.5" y="333" class="scenario" text-anchor="middle">Nested geometry</text><rect x="612.5" y="262.7998604056485" width="18" height="52.200139594351526" fill="#0969da"><title>Geometry + 64 B - C++ headers (SIMD): 507 ns</title></rect><rect x="632.5" y="266.06770529661344" width="18" height="48.93229470338656" fill="#6e7781"><title>Geometry + 64 B - C++ headers (scalar): 397 ns</title></rect><rect x="652.5" y="230.52251544747907" width="18" height="84.47748455252093" fill="#54aeff"><title>Geometry + 64 B - v8serial addon: 5.75 us</title></rect><rect x="672.5" y="250.58329193098604" width="18" height="64.41670806901396" fill="#8250df"><title>Geometry + 64 B - Node v8: 1.27 us</title></rect><rect x="692.5" y="232.33787379513132" width="18" height="82.66212620486868" fill="#bf8700"><title>Geometry + 64 B - JSON byte array: 5.01 us</title></rect><rect x="712.5" y="244.87638590723603" width="18" height="70.12361409276397" fill="#cf222e"><title>Geometry + 64 B - JSON base64: 1.95 us</title></rect><text x="672.5" y="333" class="scenario" text-anchor="middle">Geometry + 64 B</text><rect x="787.5" y="236.98479889542733" width="18" height="78.01520110457267" fill="#0969da"><title>100 Point3d objects - C++ headers (SIMD): 3.53 us</title></rect><rect x="807.5" y="237.71996975278682" width="18" height="77.28003024721318" fill="#6e7781"><title>100 Point3d objects - C++ headers (scalar): 3.34 us</title></rect><rect x="827.5" y="198.7986782453595" width="18" height="116.2013217546405" fill="#54aeff"><title>100 Point3d objects - v8serial addon: 62.47 us</title></rect><rect x="847.5" y="226.5872995466953" width="18" height="88.4127004533047" fill="#8250df"><title>100 Point3d objects - Node v8: 7.73 us</title></rect><rect x="867.5" y="221.12661610856384" width="18" height="93.87338389143616" fill="#1a7f37"><title>100 Point3d objects - JSON text: 11.65 us</title></rect><text x="837.5" y="333" class="scenario" text-anchor="middle">100 Point3d objects</text><rect x="952.5" y="266.7658649667632" width="18" height="48.23413503323678" fill="#0969da"><title>4 KiB Latin-1 string - C++ headers (SIMD): 376 ns</title></rect><rect x="972.5" y="242.91250092138722" width="18" height="72.08749907861278" fill="#6e7781"><title>4 KiB Latin-1 string - C++ headers (scalar): 2.26 us</title></rect><rect x="992.5" y="249.9247139243236" width="18" height="65.07528607567639" fill="#54aeff"><title>4 KiB Latin-1 string - v8serial addon: 1.34 us</title></rect><rect x="1012.5" y="265.07594520708886" width="18" height="49.924054792911136" fill="#8250df"><title>4 KiB Latin-1 string - Node v8: 427 ns</title></rect><rect x="1032.5" y="224.89334654880548" width="18" height="90.10665345119452" fill="#1a7f37"><title>4 KiB Latin-1 string - JSON text: 8.78 us</title></rect><text x="1002.5" y="333" class="scenario" text-anchor="middle">4 KiB Latin-1 string</text><rect x="1107.5" y="288.01918415750015" width="18" height="26.98081584249985" fill="#0969da"><title>1 KiB blob - C++ headers (SIMD): 76 ns</title></rect><rect x="1127.5" y="288.532447184126" width="18" height="26.467552815874" fill="#6e7781"><title>1 KiB blob - C++ headers (scalar): 73 ns</title></rect><rect x="1147.5" y="253.30346626837735" width="18" height="61.69653373162265" fill="#54aeff"><title>1 KiB blob - v8serial addon: 1.04 us</title></rect><rect x="1167.5" y="258.40212480057494" width="18" height="56.59787519942506" fill="#8250df"><title>1 KiB blob - Node v8: 706 ns</title></rect><rect x="1187.5" y="201.33527552808323" width="18" height="113.66472447191677" fill="#bf8700"><title>1 KiB blob - JSON byte array: 51.62 us</title></rect><rect x="1207.5" y="237.34362298185346" width="18" height="77.65637701814654" fill="#cf222e"><title>1 KiB blob - JSON base64: 3.44 us</title></rect><text x="1167.5" y="333" class="scenario" text-anchor="middle">1 KiB blob</text><rect x="1272.5" y="214.95496678678057" width="18" height="100.04503321321943" fill="#0969da"><title>1 MiB blob - C++ headers (SIMD): 18.53 us</title></rect><rect x="1292.5" y="216.3606094688107" width="18" height="98.63939053118929" fill="#6e7781"><title>1 MiB blob - C++ headers (scalar): 16.67 us</title></rect><rect x="1312.5" y="195.13922558018933" width="18" height="119.86077441981067" fill="#54aeff"><title>1 MiB blob - v8serial addon: 82.26 us</title></rect><rect x="1332.5" y="217.07262990491327" width="18" height="97.92737009508673" fill="#8250df"><title>1 MiB blob - Node v8: 15.80 us</title></rect><rect x="1352.5" y="105" width="18" height="210" fill="#bf8700"><title>1 MiB blob - JSON byte array: 72.37 ms</title></rect><rect x="1372.5" y="147.4673675189771" width="18" height="167.5326324810229" fill="#cf222e"><title>1 MiB blob - JSON base64: 2.97 ms</title></rect><text x="1332.5" y="333" class="scenario" text-anchor="middle">1 MiB blob</text>
<text x="95" y="396" class="panel">Decode latency</text><line x1="95" y1="630" x2="1415" y2="630" class="grid"/><text x="85" y="634" class="axis" text-anchor="end">10 ns</text><line x1="95" y1="602.501988671267" x2="1415" y2="602.501988671267" class="grid"/><text x="85" y="606.501988671267" class="axis" text-anchor="end">100 ns</text><line x1="95" y1="575.003977342534" x2="1415" y2="575.003977342534" class="grid"/><text x="85" y="579.003977342534" class="axis" text-anchor="end">1.00 us</text><line x1="95" y1="547.505966013801" x2="1415" y2="547.505966013801" class="grid"/><text x="85" y="551.505966013801" class="axis" text-anchor="end">10.00 us</text><line x1="95" y1="520.007954685068" x2="1415" y2="520.007954685068" class="grid"/><text x="85" y="524.007954685068" class="axis" text-anchor="end">100.00 us</text><line x1="95" y1="492.509943356335" x2="1415" y2="492.509943356335" class="grid"/><text x="85" y="496.509943356335" class="axis" text-anchor="end">1.00 ms</text><line x1="95" y1="465.01193202760203" x2="1415" y2="465.01193202760203" class="grid"/><text x="85" y="469.01193202760203" class="axis" text-anchor="end">10.00 ms</text><line x1="95" y1="437.513920698869" x2="1415" y2="437.513920698869" class="grid"/><text x="85" y="441.513920698869" class="axis" text-anchor="end">100.00 ms</text><rect x="127.5" y="628.8706891874601" width="18" height="1.1293108125398703" fill="#0969da"><title>Scalar int32 - C++ headers (SIMD): 11 ns</title></rect><rect x="147.5" y="628.0200484382116" width="18" height="1.9799515617884254" fill="#6e7781"><title>Scalar int32 - C++ headers (scalar): 12 ns</title></rect><rect x="167.5" y="605.9405191000977" width="18" height="24.05948089990227" fill="#54aeff"><title>Scalar int32 - v8serial addon: 75 ns</title></rect><rect x="187.5" y="592.9091785602583" width="18" height="37.09082143974172" fill="#8250df"><title>Scalar int32 - Node v8: 223 ns</title></rect><rect x="207.5" y="604.5236126802749" width="18" height="25.476387319725063" fill="#1a7f37"><title>Scalar int32 - JSON text: 84 ns</title></rect><text x="177.5" y="648" class="scenario" text-anchor="middle">Scalar int32</text><rect x="292.5" y="596.1952762900928" width="18" height="33.80472370990719" fill="#0969da"><title>Point3d - C++ headers (SIMD): 170 ns</title></rect><rect x="312.5" y="596.7261552758991" width="18" height="33.273844724100854" fill="#6e7781"><title>Point3d - C++ headers (scalar): 162 ns</title></rect><rect x="332.5" y="583.3823150234547" width="18" height="46.61768497654532" fill="#54aeff"><title>Point3d - v8serial addon: 496 ns</title></rect><rect x="352.5" y="584.1580229757694" width="18" height="45.84197702423057" fill="#8250df"><title>Point3d - Node v8: 465 ns</title></rect><rect x="372.5" y="591.9994820380701" width="18" height="38.00051796192986" fill="#1a7f37"><title>Point3d - JSON text: 241 ns</title></rect><text x="342.5" y="648" class="scenario" text-anchor="middle">Point3d</text><rect x="457.5" y="570.7107684258339" width="18" height="59.28923157416614" fill="#0969da"><title>Nested geometry - C++ headers (SIMD): 1.43 us</title></rect><rect x="477.5" y="571.0186333466453" width="18" height="58.98136665335471" fill="#6e7781"><title>Nested geometry - C++ headers (scalar): 1.40 us</title></rect><rect x="497.5" y="557.7837287403236" width="18" height="72.21627125967643" fill="#54aeff"><title>Nested geometry - v8serial addon: 4.23 us</title></rect><rect x="517.5" y="568.8780489320219" width="18" height="61.1219510679781" fill="#8250df"><title>Nested geometry - Node v8: 1.67 us</title></rect><rect x="537.5" y="572.1993186849576" width="18" height="57.800681315042425" fill="#1a7f37"><title>Nested geometry - JSON text: 1.26 us</title></rect><text x="507.5" y="648" class="scenario" text-anchor="middle">Nested geometry</text><rect x="612.5" y="568.8416629548815" width="18" height="61.158337045118515" fill="#0969da"><title>Geometry + 64 B - C++ headers (SIMD): 1.68 us</title></rect><rect x="632.5" y="570.4596788557171" width="18" height="59.54032114428287" fill="#6e7781"><title>Geometry + 64 B - C++ headers (scalar): 1.46 us</title></rect><rect x="652.5" y="556.5430818942566" width="18" height="73.4569181057434" fill="#54aeff"><title>Geometry + 64 B - v8serial addon: 4.69 us</title></rect><rect x="672.5" y="567.6713668970805" width="18" height="62.328633102919525" fill="#8250df"><title>Geometry + 64 B - Node v8: 1.85 us</title></rect><rect x="692.5" y="538.8924378857745" width="18" height="91.10756211422552" fill="#bf8700"><title>Geometry + 64 B - JSON byte array: 20.57 us</title></rect><rect x="712.5" y="551.1382079226179" width="18" height="78.86179207738212" fill="#cf222e"><title>Geometry + 64 B - JSON base64: 7.38 us</title></rect><text x="672.5" y="648" class="scenario" text-anchor="middle">Geometry + 64 B</text><rect x="787.5" y="540.5866160886854" width="18" height="89.41338391131455" fill="#0969da"><title>100 Point3d objects - C++ headers (SIMD): 17.85 us</title></rect><rect x="807.5" y="541.1143405736476" width="18" height="88.88565942635239" fill="#6e7781"><title>100 Point3d objects - C++ headers (scalar): 17.08 us</title></rect><rect x="827.5" y="528.8057612862667" width="18" height="101.19423871373328" fill="#54aeff"><title>100 Point3d objects - v8serial addon: 47.87 us</title></rect><rect x="847.5" y="541.5906045934078" width="18" height="88.40939540659224" fill="#8250df"><title>100 Point3d objects - Node v8: 16.41 us</title></rect><rect x="867.5" y="545.803597091648" width="18" height="84.19640290835196" fill="#1a7f37"><title>100 Point3d objects - JSON text: 11.53 us</title></rect><text x="837.5" y="648" class="scenario" text-anchor="middle">100 Point3d objects</text><rect x="952.5" y="591.1960939229299" width="18" height="38.80390607707011" fill="#0969da"><title>4 KiB Latin-1 string - C++ headers (SIMD): 258 ns</title></rect><rect x="972.5" y="572.2208830869694" width="18" height="57.779116913030634" fill="#6e7781"><title>4 KiB Latin-1 string - C++ headers (scalar): 1.26 us</title></rect><rect x="992.5" y="577.4910066750773" width="18" height="52.5089933249227" fill="#54aeff"><title>4 KiB Latin-1 string - v8serial addon: 812 ns</title></rect><rect x="1012.5" y="586.708515939115" width="18" height="43.291484060884954" fill="#8250df"><title>4 KiB Latin-1 string - Node v8: 375 ns</title></rect><rect x="1032.5" y="538.5991699569328" width="18" height="91.40083004306723" fill="#1a7f37"><title>4 KiB Latin-1 string - JSON text: 21.08 us</title></rect><text x="1002.5" y="648" class="scenario" text-anchor="middle">4 KiB Latin-1 string</text><rect x="1107.5" y="593.8320815873088" width="18" height="36.167918412691165" fill="#0969da"><title>1 KiB blob - C++ headers (SIMD): 207 ns</title></rect><rect x="1127.5" y="595.4278922451502" width="18" height="34.57210775484975" fill="#6e7781"><title>1 KiB blob - C++ headers (scalar): 181 ns</title></rect><rect x="1147.5" y="578.7464787705468" width="18" height="51.25352122945321" fill="#54aeff"><title>1 KiB blob - v8serial addon: 731 ns</title></rect><rect x="1167.5" y="582.1678784414873" width="18" height="47.832121558512654" fill="#8250df"><title>1 KiB blob - Node v8: 549 ns</title></rect><rect x="1187.5" y="511.1764601976514" width="18" height="118.82353980234859" fill="#bf8700"><title>1 KiB blob - JSON byte array: 209.49 us</title></rect><rect x="1207.5" y="566.6829562860722" width="18" height="63.317043713927774" fill="#cf222e"><title>1 KiB blob - JSON base64: 2.01 us</title></rect><text x="1167.5" y="648" class="scenario" text-anchor="middle">1 KiB blob</text><rect x="1272.5" y="536.4024642922828" width="18" height="93.59753570771716" fill="#0969da"><title>1 MiB blob - C++ headers (SIMD): 25.34 us</title></rect><rect x="1292.5" y="536.2409645207315" width="18" height="93.7590354792685" fill="#6e7781"><title>1 MiB blob - C++ headers (scalar): 25.68 us</title></rect><rect x="1312.5" y="518.6343575355361" width="18" height="111.36564246446392" fill="#54aeff"><title>1 MiB blob - v8serial addon: 112.19 us</title></rect><rect x="1332.5" y="575.6823974774308" width="18" height="54.317602522569246" fill="#8250df"><title>1 MiB blob - Node v8: 945 ns</title></rect><rect x="1352.5" y="420" width="18" height="210" fill="#bf8700"><title>1 MiB blob - JSON byte array: 433.43 ms</title></rect><rect x="1372.5" y="494.87461284494054" width="18" height="135.12538715505946" fill="#cf222e"><title>1 MiB blob - JSON base64: 820.36 us</title></rect><text x="1332.5" y="648" class="scenario" text-anchor="middle">1 MiB blob</text>
<text x="95" y="711" class="panel">Wire size</text><line x1="95" y1="945" x2="1415" y2="945" class="grid"/><text x="85" y="949" class="axis" text-anchor="end">1 B</text><line x1="95" y1="913.0526253603007" x2="1415" y2="913.0526253603007" class="grid"/><text x="85" y="917.0526253603007" class="axis" text-anchor="end">10 B</text><line x1="95" y1="881.1052507206015" x2="1415" y2="881.1052507206015" class="grid"/><text x="85" y="885.1052507206015" class="axis" text-anchor="end">100 B</text><line x1="95" y1="849.1578760809022" x2="1415" y2="849.1578760809022" class="grid"/><text x="85" y="853.1578760809022" class="axis" text-anchor="end">1000 B</text><line x1="95" y1="817.2105014412028" x2="1415" y2="817.2105014412028" class="grid"/><text x="85" y="821.2105014412028" class="axis" text-anchor="end">9.77 KiB</text><line x1="95" y1="785.2631268015036" x2="1415" y2="785.2631268015036" class="grid"/><text x="85" y="789.2631268015036" class="axis" text-anchor="end">97.66 KiB</text><line x1="95" y1="753.3157521618043" x2="1415" y2="753.3157521618043" class="grid"/><text x="85" y="757.3157521618043" class="axis" text-anchor="end">976.56 KiB</text><rect x="127.5" y="925.7657639014715" width="18" height="19.234236098528527" fill="#0969da"><title>Scalar int32 - C++ headers (SIMD): 4 B</title></rect><rect x="147.5" y="925.7657639014715" width="18" height="19.234236098528527" fill="#6e7781"><title>Scalar int32 - C++ headers (scalar): 4 B</title></rect><rect x="167.5" y="925.7657639014715" width="18" height="19.234236098528527" fill="#54aeff"><title>Scalar int32 - v8serial addon: 4 B</title></rect><rect x="187.5" y="925.7657639014715" width="18" height="19.234236098528527" fill="#8250df"><title>Scalar int32 - Node v8: 4 B</title></rect><rect x="207.5" y="935.3828819507357" width="18" height="9.617118049264263" fill="#1a7f37"><title>Scalar int32 - JSON text: 2 B</title></rect><text x="177.5" y="963" class="scenario" text-anchor="middle">Scalar int32</text><rect x="292.5" y="893.4757899165155" width="18" height="51.52421008348449" fill="#0969da"><title>Point3d - C++ headers (SIMD): 41 B</title></rect><rect x="312.5" y="893.4757899165155" width="18" height="51.52421008348449" fill="#6e7781"><title>Point3d - C++ headers (scalar): 41 B</title></rect><rect x="332.5" y="893.4757899165155" width="18" height="51.52421008348449" fill="#54aeff"><title>Point3d - v8serial addon: 41 B</title></rect><rect x="352.5" y="893.4757899165155" width="18" height="51.52421008348449" fill="#8250df"><title>Point3d - Node v8: 41 B</title></rect><rect x="372.5" y="897.35490924378" width="18" height="47.64509075622004" fill="#1a7f37"><title>Point3d - JSON text: 31 B</title></rect><text x="342.5" y="963" class="scenario" text-anchor="middle">Point3d</text><rect x="457.5" y="863.3714404114526" width="18" height="81.62855958854743" fill="#0969da"><title>Nested geometry - C++ headers (SIMD): 359 B</title></rect><rect x="477.5" y="863.3714404114526" width="18" height="81.62855958854743" fill="#6e7781"><title>Nested geometry - C++ headers (scalar): 359 B</title></rect><rect x="497.5" y="863.3714404114526" width="18" height="81.62855958854743" fill="#54aeff"><title>Nested geometry - v8serial addon: 359 B</title></rect><rect x="517.5" y="863.1035093831218" width="18" height="81.89649061687817" fill="#8250df"><title>Nested geometry - Node v8: 366 B</title></rect><rect x="537.5" y="863.6052869894257" width="18" height="81.39471301057426" fill="#1a7f37"><title>Nested geometry - JSON text: 353 B</title></rect><text x="507.5" y="963" class="scenario" text-anchor="middle">Nested geometry</text><rect x="612.5" y="860.6753362709119" width="18" height="84.32466372908812" fill="#0969da"><title>Geometry + 64 B - C++ headers (SIMD): 436 B</title></rect><rect x="632.5" y="860.6753362709119" width="18" height="84.32466372908812" fill="#6e7781"><title>Geometry + 64 B - C++ headers (scalar): 436 B</title></rect><rect x="652.5" y="860.6753362709119" width="18" height="84.32466372908812" fill="#54aeff"><title>Geometry + 64 B - v8serial addon: 436 B</title></rect><rect x="672.5" y="860.5801959997117" width="18" height="84.41980400028831" fill="#8250df"><title>Geometry + 64 B - Node v8: 439 B</title></rect><rect x="692.5" y="856.0615893921741" width="18" height="88.93841060782586" fill="#bf8700"><title>Geometry + 64 B - JSON byte array: 608 B</title></rect><rect x="712.5" y="859.722333584481" width="18" height="85.27766641551898" fill="#cf222e"><title>Geometry + 64 B - JSON base64: 467 B</title></rect><text x="672.5" y="963" class="scenario" text-anchor="middle">Geometry + 64 B</text><rect x="787.5" y="835.0268189019591" width="18" height="109.97318109804087" fill="#0969da"><title>100 Point3d objects - C++ headers (SIMD): 2.70 KiB</title></rect><rect x="807.5" y="835.0268189019591" width="18" height="109.97318109804087" fill="#6e7781"><title>100 Point3d objects - C++ headers (scalar): 2.70 KiB</title></rect><rect x="827.5" y="835.0268189019591" width="18" height="109.97318109804087" fill="#54aeff"><title>100 Point3d objects - v8serial addon: 2.70 KiB</title></rect><rect x="847.5" y="830.2500328944664" width="18" height="114.74996710553364" fill="#8250df"><title>100 Point3d objects - Node v8: 3.82 KiB</title></rect><rect x="867.5" y="835.1880943075423" width="18" height="109.81190569245769" fill="#1a7f37"><title>100 Point3d objects - JSON text: 2.67 KiB</title></rect><text x="837.5" y="963" class="scenario" text-anchor="middle">100 Point3d objects</text><rect x="952.5" y="829.577657008636" width="18" height="115.42234299136396" fill="#0969da"><title>4 KiB Latin-1 string - C++ headers (SIMD): 4.00 KiB</title></rect><rect x="972.5" y="829.577657008636" width="18" height="115.42234299136396" fill="#6e7781"><title>4 KiB Latin-1 string - C++ headers (scalar): 4.00 KiB</title></rect><rect x="992.5" y="829.577657008636" width="18" height="115.42234299136396" fill="#54aeff"><title>4 KiB Latin-1 string - v8serial addon: 4.00 KiB</title></rect><rect x="1012.5" y="829.577657008636" width="18" height="115.42234299136396" fill="#8250df"><title>4 KiB Latin-1 string - Node v8: 4.00 KiB</title></rect><rect x="1032.5" y="819.9740784271623" width="18" height="125.02592157283766" fill="#1a7f37"><title>4 KiB Latin-1 string - JSON text: 8.00 KiB</title></rect><text x="1002.5" y="963" class="scenario" text-anchor="middle">4 KiB Latin-1 string</text><rect x="1107.5" y="848.4809336051622" width="18" height="96.51906639483775" fill="#0969da"><title>1 KiB blob - C++ headers (SIMD): 1.03 KiB</title></rect><rect x="1127.5" y="848.4809336051622" width="18" height="96.51906639483775" fill="#6e7781"><title>1 KiB blob - C++ headers (scalar): 1.03 KiB</title></rect><rect x="1147.5" y="848.4809336051622" width="18" height="96.51906639483775" fill="#54aeff"><title>1 KiB blob - v8serial addon: 1.03 KiB</title></rect><rect x="1167.5" y="848.5471607882682" width="18" height="96.45283921173177" fill="#8250df"><title>1 KiB blob - Node v8: 1.02 KiB</title></rect><rect x="1187.5" y="831.0428723306313" width="18" height="113.95712766936867" fill="#bf8700"><title>1 KiB blob - JSON byte array: 3.60 KiB</title></rect><rect x="1207.5" y="844.4597695709175" width="18" height="100.5402304290825" fill="#cf222e"><title>1 KiB blob - JSON base64: 1.37 KiB</title></rect><text x="1167.5" y="963" class="scenario" text-anchor="middle">1 KiB blob</text><rect x="1272.5" y="752.6572685287113" width="18" height="192.34273147128874" fill="#0969da"><title>1 MiB blob - C++ headers (SIMD): 1.00 MiB</title></rect><rect x="1292.5" y="752.6572685287113" width="18" height="192.34273147128874" fill="#6e7781"><title>1 MiB blob - C++ headers (scalar): 1.00 MiB</title></rect><rect x="1312.5" y="752.6572685287113" width="18" height="192.34273147128874" fill="#54aeff"><title>1 MiB blob - v8serial addon: 1.00 MiB</title></rect><rect x="1332.5" y="752.6573479177364" width="18" height="192.3426520822636" fill="#8250df"><title>1 MiB blob - Node v8: 1.00 MiB</title></rect><rect x="1352.5" y="735" width="18" height="210" fill="#bf8700"><title>1 MiB blob - JSON byte array: 3.57 MiB</title></rect><rect x="1372.5" y="748.665800595409" width="18" height="196.334199404591" fill="#cf222e"><title>1 MiB blob - JSON base64: 1.33 MiB</title></rect><text x="1332.5" y="963" class="scenario" text-anchor="middle">1 MiB blob</text>
</svg>
